<?xml version="1.0" encoding="utf-8" standalone="no"?>
<!DOCTYPE svg PUBLIC "-//W3C//DTD SVG 1.1//EN"
  "http://www.w3.org/Graphics/SVG/1.1/DTD/svg11.dtd">
<!-- Created with matplotlib (http://matplotlib.org/) -->
<svg height="288pt" version="1.1" viewBox="0 0 432 288" width="432pt" xmlns="http://www.w3.org/2000/svg" xmlns:xlink="http://www.w3.org/1999/xlink">
 <defs>
  <style type="text/css">
*{stroke-linecap:butt;stroke-linejoin:round;stroke-miterlimit:100000;}
  </style>
 </defs>
 <g id="figure_1">
  <g id="patch_1">
   <path d="M 0 288 
L 432 288 
L 432 0 
L 0 0 
z
" style="fill:#ffffff;"/>
  </g>
  <g id="axes_1">
   <g id="patch_2">
    <path d="M 109.8 252 
L 333 252 
L 333 28.8 
L 109.8 28.8 
z
" style="fill:#e5e5e5;"/>
   </g>
   <g id="matplotlib.axis_1">
    <g id="xtick_1">
     <g id="line2d_1">
      <path clip-path="url(#pf432f8e3e0)" d="M 109.8 252 
L 109.8 28.8 
" style="fill:none;stroke:#ffffff;stroke-linecap:square;stroke-width:0.5;"/>
     </g>
     <g id="line2d_2">
      <defs>
       <path d="M 0 0 
L 0 4 
" id="md93e0b14ef" style="stroke:#555555;stroke-width:0.5;"/>
      </defs>
      <g>
       <use style="fill:#555555;stroke:#555555;stroke-width:0.5;" x="109.8" xlink:href="#md93e0b14ef" y="252.0"/>
      </g>
     </g>
     <g id="line2d_3">
      <defs>
       <path d="M 0 0 
L 0 -4 
" id="m8cf7c90a5d" style="stroke:#555555;stroke-width:0.5;"/>
      </defs>
      <g>
       <use style="fill:#555555;stroke:#555555;stroke-width:0.5;" x="109.8" xlink:href="#m8cf7c90a5d" y="28.8"/>
      </g>
     </g>
     <g id="text_1">
      <!-- 0 -->
      <defs>
       <path d="M 31.78125 66.40625 
Q 24.171875 66.40625 20.328125 58.90625 
Q 16.5 51.421875 16.5 36.375 
Q 16.5 21.390625 20.328125 13.890625 
Q 24.171875 6.390625 31.78125 6.390625 
Q 39.453125 6.390625 43.28125 13.890625 
Q 47.125 21.390625 47.125 36.375 
Q 47.125 51.421875 43.28125 58.90625 
Q 39.453125 66.40625 31.78125 66.40625 
M 31.78125 74.21875 
Q 44.046875 74.21875 50.515625 64.515625 
Q 56.984375 54.828125 56.984375 36.375 
Q 56.984375 17.96875 50.515625 8.265625 
Q 44.046875 -1.421875 31.78125 -1.421875 
Q 19.53125 -1.421875 13.0625 8.265625 
Q 6.59375 17.96875 6.59375 36.375 
Q 6.59375 54.828125 13.0625 64.515625 
Q 19.53125 74.21875 31.78125 74.21875 
" id="BitstreamVeraSans-Roman-30"/>
      </defs>
      <g style="fill:#555555;" transform="translate(106.61875 267.5984375)scale(0.1 -0.1)">
       <use xlink:href="#BitstreamVeraSans-Roman-30"/>
      </g>
     </g>
    </g>
    <g id="xtick_2">
     <g id="line2d_4">
      <path clip-path="url(#pf432f8e3e0)" d="M 165.6 252 
L 165.6 28.8 
" style="fill:none;stroke:#ffffff;stroke-linecap:square;stroke-width:0.5;"/>
     </g>
     <g id="line2d_5">
      <g>
       <use style="fill:#555555;stroke:#555555;stroke-width:0.5;" x="165.6" xlink:href="#md93e0b14ef" y="252.0"/>
      </g>
     </g>
     <g id="line2d_6">
      <g>
       <use style="fill:#555555;stroke:#555555;stroke-width:0.5;" x="165.6" xlink:href="#m8cf7c90a5d" y="28.8"/>
      </g>
     </g>
     <g id="text_2">
      <!-- 500 -->
      <defs>
       <path d="M 10.796875 72.90625 
L 49.515625 72.90625 
L 49.515625 64.59375 
L 19.828125 64.59375 
L 19.828125 46.734375 
Q 21.96875 47.46875 24.109375 47.828125 
Q 26.265625 48.1875 28.421875 48.1875 
Q 40.625 48.1875 47.75 41.5 
Q 54.890625 34.8125 54.890625 23.390625 
Q 54.890625 11.625 47.5625 5.09375 
Q 40.234375 -1.421875 26.90625 -1.421875 
Q 22.3125 -1.421875 17.546875 -0.640625 
Q 12.796875 0.140625 7.71875 1.703125 
L 7.71875 11.625 
Q 12.109375 9.234375 16.796875 8.0625 
Q 21.484375 6.890625 26.703125 6.890625 
Q 35.15625 6.890625 40.078125 11.328125 
Q 45.015625 15.765625 45.015625 23.390625 
Q 45.015625 31 40.078125 35.4375 
Q 35.15625 39.890625 26.703125 39.890625 
Q 22.75 39.890625 18.8125 39.015625 
Q 14.890625 38.140625 10.796875 36.28125 
z
" id="BitstreamVeraSans-Roman-35"/>
      </defs>
      <g style="fill:#555555;" transform="translate(156.05625 267.5984375)scale(0.1 -0.1)">
       <use xlink:href="#BitstreamVeraSans-Roman-35"/>
       <use x="63.623046875" xlink:href="#BitstreamVeraSans-Roman-30"/>
       <use x="127.24609375" xlink:href="#BitstreamVeraSans-Roman-30"/>
      </g>
     </g>
    </g>
    <g id="xtick_3">
     <g id="line2d_7">
      <path clip-path="url(#pf432f8e3e0)" d="M 221.4 252 
L 221.4 28.8 
" style="fill:none;stroke:#ffffff;stroke-linecap:square;stroke-width:0.5;"/>
     </g>
     <g id="line2d_8">
      <g>
       <use style="fill:#555555;stroke:#555555;stroke-width:0.5;" x="221.4" xlink:href="#md93e0b14ef" y="252.0"/>
      </g>
     </g>
     <g id="line2d_9">
      <g>
       <use style="fill:#555555;stroke:#555555;stroke-width:0.5;" x="221.4" xlink:href="#m8cf7c90a5d" y="28.8"/>
      </g>
     </g>
     <g id="text_3">
      <!-- 1000 -->
      <defs>
       <path d="M 12.40625 8.296875 
L 28.515625 8.296875 
L 28.515625 63.921875 
L 10.984375 60.40625 
L 10.984375 69.390625 
L 28.421875 72.90625 
L 38.28125 72.90625 
L 38.28125 8.296875 
L 54.390625 8.296875 
L 54.390625 0 
L 12.40625 0 
z
" id="BitstreamVeraSans-Roman-31"/>
      </defs>
      <g style="fill:#555555;" transform="translate(208.675 267.5984375)scale(0.1 -0.1)">
       <use xlink:href="#BitstreamVeraSans-Roman-31"/>
       <use x="63.623046875" xlink:href="#BitstreamVeraSans-Roman-30"/>
       <use x="127.24609375" xlink:href="#BitstreamVeraSans-Roman-30"/>
       <use x="190.869140625" xlink:href="#BitstreamVeraSans-Roman-30"/>
      </g>
     </g>
    </g>
    <g id="xtick_4">
     <g id="line2d_10">
      <path clip-path="url(#pf432f8e3e0)" d="M 277.2 252 
L 277.2 28.8 
" style="fill:none;stroke:#ffffff;stroke-linecap:square;stroke-width:0.5;"/>
     </g>
     <g id="line2d_11">
      <g>
       <use style="fill:#555555;stroke:#555555;stroke-width:0.5;" x="277.2" xlink:href="#md93e0b14ef" y="252.0"/>
      </g>
     </g>
     <g id="line2d_12">
      <g>
       <use style="fill:#555555;stroke:#555555;stroke-width:0.5;" x="277.2" xlink:href="#m8cf7c90a5d" y="28.8"/>
      </g>
     </g>
     <g id="text_4">
      <!-- 1500 -->
      <g style="fill:#555555;" transform="translate(264.475 267.5984375)scale(0.1 -0.1)">
       <use xlink:href="#BitstreamVeraSans-Roman-31"/>
       <use x="63.623046875" xlink:href="#BitstreamVeraSans-Roman-35"/>
       <use x="127.24609375" xlink:href="#BitstreamVeraSans-Roman-30"/>
       <use x="190.869140625" xlink:href="#BitstreamVeraSans-Roman-30"/>
      </g>
     </g>
    </g>
    <g id="xtick_5">
     <g id="line2d_13">
      <path clip-path="url(#pf432f8e3e0)" d="M 333 252 
L 333 28.8 
" style="fill:none;stroke:#ffffff;stroke-linecap:square;stroke-width:0.5;"/>
     </g>
     <g id="line2d_14">
      <g>
       <use style="fill:#555555;stroke:#555555;stroke-width:0.5;" x="333.0" xlink:href="#md93e0b14ef" y="252.0"/>
      </g>
     </g>
     <g id="line2d_15">
      <g>
       <use style="fill:#555555;stroke:#555555;stroke-width:0.5;" x="333.0" xlink:href="#m8cf7c90a5d" y="28.8"/>
      </g>
     </g>
     <g id="text_5">
      <!-- 2000 -->
      <defs>
       <path d="M 19.1875 8.296875 
L 53.609375 8.296875 
L 53.609375 0 
L 7.328125 0 
L 7.328125 8.296875 
Q 12.9375 14.109375 22.625 23.890625 
Q 32.328125 33.6875 34.8125 36.53125 
Q 39.546875 41.84375 41.421875 45.53125 
Q 43.3125 49.21875 43.3125 52.78125 
Q 43.3125 58.59375 39.234375 62.25 
Q 35.15625 65.921875 28.609375 65.921875 
Q 23.96875 65.921875 18.8125 64.3125 
Q 13.671875 62.703125 7.8125 59.421875 
L 7.8125 69.390625 
Q 13.765625 71.78125 18.9375 73 
Q 24.125 74.21875 28.421875 74.21875 
Q 39.75 74.21875 46.484375 68.546875 
Q 53.21875 62.890625 53.21875 53.421875 
Q 53.21875 48.921875 51.53125 44.890625 
Q 49.859375 40.875 45.40625 35.40625 
Q 44.1875 33.984375 37.640625 27.21875 
Q 31.109375 20.453125 19.1875 8.296875 
" id="BitstreamVeraSans-Roman-32"/>
      </defs>
      <g style="fill:#555555;" transform="translate(320.275 267.5984375)scale(0.1 -0.1)">
       <use xlink:href="#BitstreamVeraSans-Roman-32"/>
       <use x="63.623046875" xlink:href="#BitstreamVeraSans-Roman-30"/>
       <use x="127.24609375" xlink:href="#BitstreamVeraSans-Roman-30"/>
       <use x="190.869140625" xlink:href="#BitstreamVeraSans-Roman-30"/>
      </g>
     </g>
    </g>
    <g id="text_6">
     <!-- proportional draw expectation -->
     <defs>
      <path id="BitstreamVeraSans-Roman-20"/>
      <path d="M 54.890625 33.015625 
L 54.890625 0 
L 45.90625 0 
L 45.90625 32.71875 
Q 45.90625 40.484375 42.875 44.328125 
Q 39.84375 48.1875 33.796875 48.1875 
Q 26.515625 48.1875 22.3125 43.546875 
Q 18.109375 38.921875 18.109375 30.90625 
L 18.109375 0 
L 9.078125 0 
L 9.078125 54.6875 
L 18.109375 54.6875 
L 18.109375 46.1875 
Q 21.34375 51.125 25.703125 53.5625 
Q 30.078125 56 35.796875 56 
Q 45.21875 56 50.046875 50.171875 
Q 54.890625 44.34375 54.890625 33.015625 
" id="BitstreamVeraSans-Roman-6e"/>
      <path d="M 34.28125 27.484375 
Q 23.390625 27.484375 19.1875 25 
Q 14.984375 22.515625 14.984375 16.5 
Q 14.984375 11.71875 18.140625 8.90625 
Q 21.296875 6.109375 26.703125 6.109375 
Q 34.1875 6.109375 38.703125 11.40625 
Q 43.21875 16.703125 43.21875 25.484375 
L 43.21875 27.484375 
z
M 52.203125 31.203125 
L 52.203125 0 
L 43.21875 0 
L 43.21875 8.296875 
Q 40.140625 3.328125 35.546875 0.953125 
Q 30.953125 -1.421875 24.3125 -1.421875 
Q 15.921875 -1.421875 10.953125 3.296875 
Q 6 8.015625 6 15.921875 
Q 6 25.140625 12.171875 29.828125 
Q 18.359375 34.515625 30.609375 34.515625 
L 43.21875 34.515625 
L 43.21875 35.40625 
Q 43.21875 41.609375 39.140625 45 
Q 35.0625 48.390625 27.6875 48.390625 
Q 23 48.390625 18.546875 47.265625 
Q 14.109375 46.140625 10.015625 43.890625 
L 10.015625 52.203125 
Q 14.9375 54.109375 19.578125 55.046875 
Q 24.21875 56 28.609375 56 
Q 40.484375 56 46.34375 49.84375 
Q 52.203125 43.703125 52.203125 31.203125 
" id="BitstreamVeraSans-Roman-61"/>
      <path d="M 30.609375 48.390625 
Q 23.390625 48.390625 19.1875 42.75 
Q 14.984375 37.109375 14.984375 27.296875 
Q 14.984375 17.484375 19.15625 11.84375 
Q 23.34375 6.203125 30.609375 6.203125 
Q 37.796875 6.203125 41.984375 11.859375 
Q 46.1875 17.53125 46.1875 27.296875 
Q 46.1875 37.015625 41.984375 42.703125 
Q 37.796875 48.390625 30.609375 48.390625 
M 30.609375 56 
Q 42.328125 56 49.015625 48.375 
Q 55.71875 40.765625 55.71875 27.296875 
Q 55.71875 13.875 49.015625 6.21875 
Q 42.328125 -1.421875 30.609375 -1.421875 
Q 18.84375 -1.421875 12.171875 6.21875 
Q 5.515625 13.875 5.515625 27.296875 
Q 5.515625 40.765625 12.171875 48.375 
Q 18.84375 56 30.609375 56 
" id="BitstreamVeraSans-Roman-6f"/>
      <path d="M 9.421875 75.984375 
L 18.40625 75.984375 
L 18.40625 0 
L 9.421875 0 
z
" id="BitstreamVeraSans-Roman-6c"/>
      <path d="M 9.421875 54.6875 
L 18.40625 54.6875 
L 18.40625 0 
L 9.421875 0 
z
M 9.421875 75.984375 
L 18.40625 75.984375 
L 18.40625 64.59375 
L 9.421875 64.59375 
z
" id="BitstreamVeraSans-Roman-69"/>
      <path d="M 48.78125 52.59375 
L 48.78125 44.1875 
Q 44.96875 46.296875 41.140625 47.34375 
Q 37.3125 48.390625 33.40625 48.390625 
Q 24.65625 48.390625 19.8125 42.84375 
Q 14.984375 37.3125 14.984375 27.296875 
Q 14.984375 17.28125 19.8125 11.734375 
Q 24.65625 6.203125 33.40625 6.203125 
Q 37.3125 6.203125 41.140625 7.25 
Q 44.96875 8.296875 48.78125 10.40625 
L 48.78125 2.09375 
Q 45.015625 0.34375 40.984375 -0.53125 
Q 36.96875 -1.421875 32.421875 -1.421875 
Q 20.0625 -1.421875 12.78125 6.34375 
Q 5.515625 14.109375 5.515625 27.296875 
Q 5.515625 40.671875 12.859375 48.328125 
Q 20.21875 56 33.015625 56 
Q 37.15625 56 41.109375 55.140625 
Q 45.0625 54.296875 48.78125 52.59375 
" id="BitstreamVeraSans-Roman-63"/>
      <path d="M 54.890625 54.6875 
L 35.109375 28.078125 
L 55.90625 0 
L 45.3125 0 
L 29.390625 21.484375 
L 13.484375 0 
L 2.875 0 
L 24.125 28.609375 
L 4.6875 54.6875 
L 15.28125 54.6875 
L 29.78125 35.203125 
L 44.28125 54.6875 
z
" id="BitstreamVeraSans-Roman-78"/>
      <path d="M 4.203125 54.6875 
L 13.1875 54.6875 
L 24.421875 12.015625 
L 35.59375 54.6875 
L 46.1875 54.6875 
L 57.421875 12.015625 
L 68.609375 54.6875 
L 77.59375 54.6875 
L 63.28125 0 
L 52.6875 0 
L 40.921875 44.828125 
L 29.109375 0 
L 18.5 0 
z
" id="BitstreamVeraSans-Roman-77"/>
      <path d="M 56.203125 29.59375 
L 56.203125 25.203125 
L 14.890625 25.203125 
Q 15.484375 15.921875 20.484375 11.0625 
Q 25.484375 6.203125 34.421875 6.203125 
Q 39.59375 6.203125 44.453125 7.46875 
Q 49.3125 8.734375 54.109375 11.28125 
L 54.109375 2.78125 
Q 49.265625 0.734375 44.1875 -0.34375 
Q 39.109375 -1.421875 33.890625 -1.421875 
Q 20.796875 -1.421875 13.15625 6.1875 
Q 5.515625 13.8125 5.515625 26.8125 
Q 5.515625 40.234375 12.765625 48.109375 
Q 20.015625 56 32.328125 56 
Q 43.359375 56 49.78125 48.890625 
Q 56.203125 41.796875 56.203125 29.59375 
M 47.21875 32.234375 
Q 47.125 39.59375 43.09375 43.984375 
Q 39.0625 48.390625 32.421875 48.390625 
Q 24.90625 48.390625 20.390625 44.140625 
Q 15.875 39.890625 15.1875 32.171875 
z
" id="BitstreamVeraSans-Roman-65"/>
      <path d="M 45.40625 46.390625 
L 45.40625 75.984375 
L 54.390625 75.984375 
L 54.390625 0 
L 45.40625 0 
L 45.40625 8.203125 
Q 42.578125 3.328125 38.25 0.953125 
Q 33.9375 -1.421875 27.875 -1.421875 
Q 17.96875 -1.421875 11.734375 6.484375 
Q 5.515625 14.40625 5.515625 27.296875 
Q 5.515625 40.1875 11.734375 48.09375 
Q 17.96875 56 27.875 56 
Q 33.9375 56 38.25 53.625 
Q 42.578125 51.265625 45.40625 46.390625 
M 14.796875 27.296875 
Q 14.796875 17.390625 18.875 11.75 
Q 22.953125 6.109375 30.078125 6.109375 
Q 37.203125 6.109375 41.296875 11.75 
Q 45.40625 17.390625 45.40625 27.296875 
Q 45.40625 37.203125 41.296875 42.84375 
Q 37.203125 48.484375 30.078125 48.484375 
Q 22.953125 48.484375 18.875 42.84375 
Q 14.796875 37.203125 14.796875 27.296875 
" id="BitstreamVeraSans-Roman-64"/>
      <path d="M 18.3125 70.21875 
L 18.3125 54.6875 
L 36.8125 54.6875 
L 36.8125 47.703125 
L 18.3125 47.703125 
L 18.3125 18.015625 
Q 18.3125 11.328125 20.140625 9.421875 
Q 21.96875 7.515625 27.59375 7.515625 
L 36.8125 7.515625 
L 36.8125 0 
L 27.59375 0 
Q 17.1875 0 13.234375 3.875 
Q 9.28125 7.765625 9.28125 18.015625 
L 9.28125 47.703125 
L 2.6875 47.703125 
L 2.6875 54.6875 
L 9.28125 54.6875 
L 9.28125 70.21875 
z
" id="BitstreamVeraSans-Roman-74"/>
      <path d="M 41.109375 46.296875 
Q 39.59375 47.171875 37.8125 47.578125 
Q 36.03125 48 33.890625 48 
Q 26.265625 48 22.1875 43.046875 
Q 18.109375 38.09375 18.109375 28.8125 
L 18.109375 0 
L 9.078125 0 
L 9.078125 54.6875 
L 18.109375 54.6875 
L 18.109375 46.1875 
Q 20.953125 51.171875 25.484375 53.578125 
Q 30.03125 56 36.53125 56 
Q 37.453125 56 38.578125 55.875 
Q 39.703125 55.765625 41.0625 55.515625 
z
" id="BitstreamVeraSans-Roman-72"/>
      <path d="M 18.109375 8.203125 
L 18.109375 -20.796875 
L 9.078125 -20.796875 
L 9.078125 54.6875 
L 18.109375 54.6875 
L 18.109375 46.390625 
Q 20.953125 51.265625 25.265625 53.625 
Q 29.59375 56 35.59375 56 
Q 45.5625 56 51.78125 48.09375 
Q 58.015625 40.1875 58.015625 27.296875 
Q 58.015625 14.40625 51.78125 6.484375 
Q 45.5625 -1.421875 35.59375 -1.421875 
Q 29.59375 -1.421875 25.265625 0.953125 
Q 20.953125 3.328125 18.109375 8.203125 
M 48.6875 27.296875 
Q 48.6875 37.203125 44.609375 42.84375 
Q 40.53125 48.484375 33.40625 48.484375 
Q 26.265625 48.484375 22.1875 42.84375 
Q 18.109375 37.203125 18.109375 27.296875 
Q 18.109375 17.390625 22.1875 11.75 
Q 26.265625 6.109375 33.40625 6.109375 
Q 40.53125 6.109375 44.609375 11.75 
Q 48.6875 17.390625 48.6875 27.296875 
" id="BitstreamVeraSans-Roman-70"/>
     </defs>
     <g style="fill:#555555;" transform="translate(130.434375 283.79625)scale(0.12 -0.12)">
      <use xlink:href="#BitstreamVeraSans-Roman-70"/>
      <use x="63.4765625" xlink:href="#BitstreamVeraSans-Roman-72"/>
      <use x="104.55859375" xlink:href="#BitstreamVeraSans-Roman-6f"/>
      <use x="165.740234375" xlink:href="#BitstreamVeraSans-Roman-70"/>
      <use x="229.216796875" xlink:href="#BitstreamVeraSans-Roman-6f"/>
      <use x="290.3984375" xlink:href="#BitstreamVeraSans-Roman-72"/>
      <use x="331.51171875" xlink:href="#BitstreamVeraSans-Roman-74"/>
      <use x="370.720703125" xlink:href="#BitstreamVeraSans-Roman-69"/>
      <use x="398.50390625" xlink:href="#BitstreamVeraSans-Roman-6f"/>
      <use x="459.685546875" xlink:href="#BitstreamVeraSans-Roman-6e"/>
      <use x="523.064453125" xlink:href="#BitstreamVeraSans-Roman-61"/>
      <use x="584.34375" xlink:href="#BitstreamVeraSans-Roman-6c"/>
      <use x="612.126953125" xlink:href="#BitstreamVeraSans-Roman-20"/>
      <use x="643.9140625" xlink:href="#BitstreamVeraSans-Roman-64"/>
      <use x="707.390625" xlink:href="#BitstreamVeraSans-Roman-72"/>
      <use x="748.50390625" xlink:href="#BitstreamVeraSans-Roman-61"/>
      <use x="809.783203125" xlink:href="#BitstreamVeraSans-Roman-77"/>
      <use x="891.5703125" xlink:href="#BitstreamVeraSans-Roman-20"/>
      <use x="923.357421875" xlink:href="#BitstreamVeraSans-Roman-65"/>
      <use x="984.865234375" xlink:href="#BitstreamVeraSans-Roman-78"/>
      <use x="1044.04492188" xlink:href="#BitstreamVeraSans-Roman-70"/>
      <use x="1107.52148438" xlink:href="#BitstreamVeraSans-Roman-65"/>
      <use x="1169.04492188" xlink:href="#BitstreamVeraSans-Roman-63"/>
      <use x="1224.02539062" xlink:href="#BitstreamVeraSans-Roman-74"/>
      <use x="1263.234375" xlink:href="#BitstreamVeraSans-Roman-61"/>
      <use x="1324.51367188" xlink:href="#BitstreamVeraSans-Roman-74"/>
      <use x="1363.72265625" xlink:href="#BitstreamVeraSans-Roman-69"/>
      <use x="1391.50585938" xlink:href="#BitstreamVeraSans-Roman-6f"/>
      <use x="1452.6875" xlink:href="#BitstreamVeraSans-Roman-6e"/>
     </g>
    </g>
   </g>
   <g id="matplotlib.axis_2">
    <g id="ytick_1">
     <g id="line2d_16">
      <path clip-path="url(#pf432f8e3e0)" d="M 109.8 252 
L 333 252 
" style="fill:none;stroke:#ffffff;stroke-linecap:square;stroke-width:0.5;"/>
     </g>
     <g id="line2d_17">
      <defs>
       <path d="M 0 0 
L -4 0 
" id="m0f1d7852e5" style="stroke:#555555;stroke-width:0.5;"/>
      </defs>
      <g>
       <use style="fill:#555555;stroke:#555555;stroke-width:0.5;" x="109.8" xlink:href="#m0f1d7852e5" y="252.0"/>
      </g>
     </g>
     <g id="line2d_18">
      <defs>
       <path d="M 0 0 
L 4 0 
" id="m64da86d340" style="stroke:#555555;stroke-width:0.5;"/>
      </defs>
      <g>
       <use style="fill:#555555;stroke:#555555;stroke-width:0.5;" x="333.0" xlink:href="#m64da86d340" y="252.0"/>
      </g>
     </g>
     <g id="text_7">
      <!-- 0 -->
      <g style="fill:#555555;" transform="translate(95.4375 254.759375)scale(0.1 -0.1)">
       <use xlink:href="#BitstreamVeraSans-Roman-30"/>
      </g>
     </g>
    </g>
    <g id="ytick_2">
     <g id="line2d_19">
      <path clip-path="url(#pf432f8e3e0)" d="M 109.8 196.2 
L 333 196.2 
" style="fill:none;stroke:#ffffff;stroke-linecap:square;stroke-width:0.5;"/>
     </g>
     <g id="line2d_20">
      <g>
       <use style="fill:#555555;stroke:#555555;stroke-width:0.5;" x="109.8" xlink:href="#m0f1d7852e5" y="196.2"/>
      </g>
     </g>
     <g id="line2d_21">
      <g>
       <use style="fill:#555555;stroke:#555555;stroke-width:0.5;" x="333.0" xlink:href="#m64da86d340" y="196.2"/>
      </g>
     </g>
     <g id="text_8">
      <!-- 500 -->
      <g style="fill:#555555;" transform="translate(82.7125 198.959375)scale(0.1 -0.1)">
       <use xlink:href="#BitstreamVeraSans-Roman-35"/>
       <use x="63.623046875" xlink:href="#BitstreamVeraSans-Roman-30"/>
       <use x="127.24609375" xlink:href="#BitstreamVeraSans-Roman-30"/>
      </g>
     </g>
    </g>
    <g id="ytick_3">
     <g id="line2d_22">
      <path clip-path="url(#pf432f8e3e0)" d="M 109.8 140.4 
L 333 140.4 
" style="fill:none;stroke:#ffffff;stroke-linecap:square;stroke-width:0.5;"/>
     </g>
     <g id="line2d_23">
      <g>
       <use style="fill:#555555;stroke:#555555;stroke-width:0.5;" x="109.8" xlink:href="#m0f1d7852e5" y="140.4"/>
      </g>
     </g>
     <g id="line2d_24">
      <g>
       <use style="fill:#555555;stroke:#555555;stroke-width:0.5;" x="333.0" xlink:href="#m64da86d340" y="140.4"/>
      </g>
     </g>
     <g id="text_9">
      <!-- 1000 -->
      <g style="fill:#555555;" transform="translate(76.35 143.159375)scale(0.1 -0.1)">
       <use xlink:href="#BitstreamVeraSans-Roman-31"/>
       <use x="63.623046875" xlink:href="#BitstreamVeraSans-Roman-30"/>
       <use x="127.24609375" xlink:href="#BitstreamVeraSans-Roman-30"/>
       <use x="190.869140625" xlink:href="#BitstreamVeraSans-Roman-30"/>
      </g>
     </g>
    </g>
    <g id="ytick_4">
     <g id="line2d_25">
      <path clip-path="url(#pf432f8e3e0)" d="M 109.8 84.6 
L 333 84.6 
" style="fill:none;stroke:#ffffff;stroke-linecap:square;stroke-width:0.5;"/>
     </g>
     <g id="line2d_26">
      <g>
       <use style="fill:#555555;stroke:#555555;stroke-width:0.5;" x="109.8" xlink:href="#m0f1d7852e5" y="84.6"/>
      </g>
     </g>
     <g id="line2d_27">
      <g>
       <use style="fill:#555555;stroke:#555555;stroke-width:0.5;" x="333.0" xlink:href="#m64da86d340" y="84.6"/>
      </g>
     </g>
     <g id="text_10">
      <!-- 1500 -->
      <g style="fill:#555555;" transform="translate(76.35 87.359375)scale(0.1 -0.1)">
       <use xlink:href="#BitstreamVeraSans-Roman-31"/>
       <use x="63.623046875" xlink:href="#BitstreamVeraSans-Roman-35"/>
       <use x="127.24609375" xlink:href="#BitstreamVeraSans-Roman-30"/>
       <use x="190.869140625" xlink:href="#BitstreamVeraSans-Roman-30"/>
      </g>
     </g>
    </g>
    <g id="ytick_5">
     <g id="line2d_28">
      <path clip-path="url(#pf432f8e3e0)" d="M 109.8 28.8 
L 333 28.8 
" style="fill:none;stroke:#ffffff;stroke-linecap:square;stroke-width:0.5;"/>
     </g>
     <g id="line2d_29">
      <g>
       <use style="fill:#555555;stroke:#555555;stroke-width:0.5;" x="109.8" xlink:href="#m0f1d7852e5" y="28.8"/>
      </g>
     </g>
     <g id="line2d_30">
      <g>
       <use style="fill:#555555;stroke:#555555;stroke-width:0.5;" x="333.0" xlink:href="#m64da86d340" y="28.8"/>
      </g>
     </g>
     <g id="text_11">
      <!-- 2000 -->
      <g style="fill:#555555;" transform="translate(76.35 31.559375)scale(0.1 -0.1)">
       <use xlink:href="#BitstreamVeraSans-Roman-32"/>
       <use x="63.623046875" xlink:href="#BitstreamVeraSans-Roman-30"/>
       <use x="127.24609375" xlink:href="#BitstreamVeraSans-Roman-30"/>
       <use x="190.869140625" xlink:href="#BitstreamVeraSans-Roman-30"/>
      </g>
     </g>
    </g>
    <g id="text_12">
     <!-- # new B entries -->
     <defs>
      <path d="M 51.125 44 
L 36.921875 44 
L 32.8125 27.6875 
L 47.125 27.6875 
z
M 43.796875 71.78125 
L 38.71875 51.515625 
L 52.984375 51.515625 
L 58.109375 71.78125 
L 65.921875 71.78125 
L 60.890625 51.515625 
L 76.125 51.515625 
L 76.125 44 
L 58.984375 44 
L 54.984375 27.6875 
L 70.515625 27.6875 
L 70.515625 20.21875 
L 53.078125 20.21875 
L 48 0 
L 40.1875 0 
L 45.21875 20.21875 
L 30.90625 20.21875 
L 25.875 0 
L 18.015625 0 
L 23.09375 20.21875 
L 7.71875 20.21875 
L 7.71875 27.6875 
L 24.90625 27.6875 
L 29 44 
L 13.28125 44 
L 13.28125 51.515625 
L 30.90625 51.515625 
L 35.890625 71.78125 
z
" id="BitstreamVeraSans-Roman-23"/>
      <path d="M 19.671875 34.8125 
L 19.671875 8.109375 
L 35.5 8.109375 
Q 43.453125 8.109375 47.28125 11.40625 
Q 51.125 14.703125 51.125 21.484375 
Q 51.125 28.328125 47.28125 31.5625 
Q 43.453125 34.8125 35.5 34.8125 
z
M 19.671875 64.796875 
L 19.671875 42.828125 
L 34.28125 42.828125 
Q 41.5 42.828125 45.03125 45.53125 
Q 48.578125 48.25 48.578125 53.8125 
Q 48.578125 59.328125 45.03125 62.0625 
Q 41.5 64.796875 34.28125 64.796875 
z
M 9.8125 72.90625 
L 35.015625 72.90625 
Q 46.296875 72.90625 52.390625 68.21875 
Q 58.5 63.53125 58.5 54.890625 
Q 58.5 48.1875 55.375 44.234375 
Q 52.25 40.28125 46.1875 39.3125 
Q 53.46875 37.75 57.5 32.78125 
Q 61.53125 27.828125 61.53125 20.40625 
Q 61.53125 10.640625 54.890625 5.3125 
Q 48.25 0 35.984375 0 
L 9.8125 0 
z
" id="BitstreamVeraSans-Roman-42"/>
      <path d="M 44.28125 53.078125 
L 44.28125 44.578125 
Q 40.484375 46.53125 36.375 47.5 
Q 32.28125 48.484375 27.875 48.484375 
Q 21.1875 48.484375 17.84375 46.4375 
Q 14.5 44.390625 14.5 40.28125 
Q 14.5 37.15625 16.890625 35.375 
Q 19.28125 33.59375 26.515625 31.984375 
L 29.59375 31.296875 
Q 39.15625 29.25 43.1875 25.515625 
Q 47.21875 21.78125 47.21875 15.09375 
Q 47.21875 7.46875 41.1875 3.015625 
Q 35.15625 -1.421875 24.609375 -1.421875 
Q 20.21875 -1.421875 15.453125 -0.5625 
Q 10.6875 0.296875 5.421875 2 
L 5.421875 11.28125 
Q 10.40625 8.6875 15.234375 7.390625 
Q 20.0625 6.109375 24.8125 6.109375 
Q 31.15625 6.109375 34.5625 8.28125 
Q 37.984375 10.453125 37.984375 14.40625 
Q 37.984375 18.0625 35.515625 20.015625 
Q 33.0625 21.96875 24.703125 23.78125 
L 21.578125 24.515625 
Q 13.234375 26.265625 9.515625 29.90625 
Q 5.8125 33.546875 5.8125 39.890625 
Q 5.8125 47.609375 11.28125 51.796875 
Q 16.75 56 26.8125 56 
Q 31.78125 56 36.171875 55.265625 
Q 40.578125 54.546875 44.28125 53.078125 
" id="BitstreamVeraSans-Roman-73"/>
     </defs>
     <g style="fill:#555555;" transform="translate(68.854375 188.46375)rotate(-90.0)scale(0.12 -0.12)">
      <use xlink:href="#BitstreamVeraSans-Roman-23"/>
      <use x="83.7890625" xlink:href="#BitstreamVeraSans-Roman-20"/>
      <use x="115.576171875" xlink:href="#BitstreamVeraSans-Roman-6e"/>
      <use x="178.955078125" xlink:href="#BitstreamVeraSans-Roman-65"/>
      <use x="240.478515625" xlink:href="#BitstreamVeraSans-Roman-77"/>
      <use x="322.265625" xlink:href="#BitstreamVeraSans-Roman-20"/>
      <use x="354.052734375" xlink:href="#BitstreamVeraSans-Roman-42"/>
      <use x="422.65625" xlink:href="#BitstreamVeraSans-Roman-20"/>
      <use x="454.443359375" xlink:href="#BitstreamVeraSans-Roman-65"/>
      <use x="515.966796875" xlink:href="#BitstreamVeraSans-Roman-6e"/>
      <use x="579.345703125" xlink:href="#BitstreamVeraSans-Roman-74"/>
      <use x="618.5546875" xlink:href="#BitstreamVeraSans-Roman-72"/>
      <use x="659.66796875" xlink:href="#BitstreamVeraSans-Roman-69"/>
      <use x="687.451171875" xlink:href="#BitstreamVeraSans-Roman-65"/>
      <use x="748.974609375" xlink:href="#BitstreamVeraSans-Roman-73"/>
     </g>
    </g>
   </g>
   <g id="line2d_31">
    <defs>
     <path d="M 0 1.5 
C 0.397805 1.5 0.77937 1.341951 1.06066 1.06066 
C 1.341951 0.77937 1.5 0.397805 1.5 0 
C 1.5 -0.397805 1.341951 -0.77937 1.06066 -1.06066 
C 0.77937 -1.341951 0.397805 -1.5 0 -1.5 
C -0.397805 -1.5 -0.77937 -1.341951 -1.06066 -1.06066 
C -1.341951 -0.77937 -1.5 -0.397805 -1.5 0 
C -1.5 0.397805 -1.341951 0.77937 -1.06066 1.06066 
C -0.77937 1.341951 -0.397805 1.5 0 1.5 
z
" id="m9218205a76" style="stroke:#aa5577;stroke-width:0.5;"/>
    </defs>
    <g clip-path="url(#pf432f8e3e0)">
     <use style="fill:#aa5577;stroke:#aa5577;stroke-width:0.5;" x="147.36456" xlink:href="#m9218205a76" y="96.318"/>
     <use style="fill:#aa5577;stroke:#aa5577;stroke-width:0.5;" x="142.15842" xlink:href="#m9218205a76" y="117.8568"/>
     <use style="fill:#aa5577;stroke:#aa5577;stroke-width:0.5;" x="152.47026" xlink:href="#m9218205a76" y="110.826"/>
     <use style="fill:#aa5577;stroke:#aa5577;stroke-width:0.5;" x="154.22796" xlink:href="#m9218205a76" y="43.5312"/>
     <use style="fill:#aa5577;stroke:#aa5577;stroke-width:0.5;" x="136.55052" xlink:href="#m9218205a76" y="142.7436"/>
     <use style="fill:#aa5577;stroke:#aa5577;stroke-width:0.5;" x="141.9408" xlink:href="#m9218205a76" y="125.6688"/>
     <use style="fill:#aa5577;stroke:#aa5577;stroke-width:0.5;" x="132.26508" xlink:href="#m9218205a76" y="172.3176"/>
     <use style="fill:#aa5577;stroke:#aa5577;stroke-width:0.5;" x="121.33386" xlink:href="#m9218205a76" y="215.73"/>
     <use style="fill:#aa5577;stroke:#aa5577;stroke-width:0.5;" x="121.23342" xlink:href="#m9218205a76" y="226.4436"/>
     <use style="fill:#aa5577;stroke:#aa5577;stroke-width:0.5;" x="142.72758" xlink:href="#m9218205a76" y="139.0608"/>
     <use style="fill:#aa5577;stroke:#aa5577;stroke-width:0.5;" x="121.36734" xlink:href="#m9218205a76" y="227.5596"/>
     <use style="fill:#aa5577;stroke:#aa5577;stroke-width:0.5;" x="123.40962" xlink:href="#m9218205a76" y="225.9972"/>
     <use style="fill:#aa5577;stroke:#aa5577;stroke-width:0.5;" x="126.92502" xlink:href="#m9218205a76" y="225.3276"/>
     <use style="fill:#aa5577;stroke:#aa5577;stroke-width:0.5;" x="130.9761" xlink:href="#m9218205a76" y="214.614"/>
     <use style="fill:#aa5577;stroke:#aa5577;stroke-width:0.5;" x="128.23074" xlink:href="#m9218205a76" y="222.6492"/>
     <use style="fill:#aa5577;stroke:#aa5577;stroke-width:0.5;" x="134.6589" xlink:href="#m9218205a76" y="208.9224"/>
     <use style="fill:#aa5577;stroke:#aa5577;stroke-width:0.5;" x="133.28622" xlink:href="#m9218205a76" y="220.0824"/>
     <use style="fill:#aa5577;stroke:#aa5577;stroke-width:0.5;" x="129.3021" xlink:href="#m9218205a76" y="226.1088"/>
     <use style="fill:#aa5577;stroke:#aa5577;stroke-width:0.5;" x="124.49772" xlink:href="#m9218205a76" y="235.26"/>
     <use style="fill:#aa5577;stroke:#aa5577;stroke-width:0.5;" x="122.30478" xlink:href="#m9218205a76" y="229.0104"/>
     <use style="fill:#aa5577;stroke:#aa5577;stroke-width:0.5;" x="121.16646" xlink:href="#m9218205a76" y="235.1484"/>
     <use style="fill:#aa5577;stroke:#aa5577;stroke-width:0.5;" x="120.98232" xlink:href="#m9218205a76" y="225.774"/>
     <use style="fill:#aa5577;stroke:#aa5577;stroke-width:0.5;" x="120.41316" xlink:href="#m9218205a76" y="231.6888"/>
     <use style="fill:#aa5577;stroke:#aa5577;stroke-width:0.5;" x="117.45018" xlink:href="#m9218205a76" y="238.05"/>
     <use style="fill:#aa5577;stroke:#aa5577;stroke-width:0.5;" x="121.66866" xlink:href="#m9218205a76" y="225.9972"/>
     <use style="fill:#aa5577;stroke:#aa5577;stroke-width:0.5;" x="116.3286" xlink:href="#m9218205a76" y="235.5948"/>
    </g>
   </g>
   <g id="line2d_32">
    <path clip-path="url(#pf432f8e3e0)" d="M 109.8 252 
L 332.8884 28.9116 
L 332.8884 28.9116 
" style="fill:none;opacity:0.75;stroke:#555555;stroke-dasharray:10.000000,10.000000;stroke-dashoffset:0.0;"/>
   </g>
   <g id="line2d_33">
    <path clip-path="url(#pf432f8e3e0)" d="M 147.36456 112.549853 
L 142.15842 136.956476 
L 152.47026 88.614097 
L 154.22796 80.373919 
L 136.55052 163.246568 
L 141.9408 137.976688 
L 132.26508 183.336907 
L 121.33386 234.582967 
L 121.23342 235.053834 
L 142.72758 134.288227 
L 121.36734 234.426011 
L 123.40962 224.851709 
L 126.92502 208.371353 
L 130.9761 189.379704 
L 128.23074 202.250077 
L 134.6589 172.114569 
L 133.28622 178.549756 
L 129.3021 197.227493 
L 124.49772 219.750646 
L 122.30478 230.031249 
L 121.16646 235.367746 
L 120.98232 236.231002 
L 120.41316 238.899251 
L 117.45018 252.789836 
L 121.66866 233.013409 
L 116.3286 258.047855 
" style="fill:none;opacity:0.5;stroke:#aa5577;stroke-linecap:square;"/>
   </g>
   <g id="patch_3">
    <path d="M 109.8 28.8 
L 333 28.8 
" style="fill:none;stroke:#ffffff;stroke-linecap:square;stroke-linejoin:miter;"/>
   </g>
   <g id="patch_4">
    <path d="M 333 252 
L 333 28.8 
" style="fill:none;stroke:#ffffff;stroke-linecap:square;stroke-linejoin:miter;"/>
   </g>
   <g id="patch_5">
    <path d="M 109.8 252 
L 333 252 
" style="fill:none;stroke:#ffffff;stroke-linecap:square;stroke-linejoin:miter;"/>
   </g>
   <g id="patch_6">
    <path d="M 109.8 252 
L 109.8 28.8 
" style="fill:none;stroke:#ffffff;stroke-linecap:square;stroke-linejoin:miter;"/>
   </g>
  </g>
 </g>
 <defs>
  <clipPath id="pf432f8e3e0">
   <rect height="223.2" width="223.2" x="109.8" y="28.8"/>
  </clipPath>
 </defs>
</svg>
